<svg preserveAspectRatio="none" width="100%" height="100%" overflow="visible" style="display: block;" viewBox="0 0 24 24" fill="none" xmlns="http://www.w3.org/2000/svg">
<g id="Frame">
<path id="Vector" d="M4.5 8C4.5 7.46957 4.65804 6.96086 4.93934 6.58579C5.22064 6.21071 5.60218 6 6 6H18C18.3978 6 18.7794 6.21071 19.0607 6.58579C19.342 6.96086 19.5 7.46957 19.5 8V16C19.5 16.5304 19.342 17.0391 19.0607 17.4142C18.7794 17.7893 18.3978 18 18 18H6C5.60218 18 5.22064 17.7893 4.93934 17.4142C4.65804 17.0391 4.5 16.5304 4.5 16V8Z" stroke="var(--stroke-0, #5A8994)" stroke-width="2" stroke-linecap="round" stroke-linejoin="round"/>
<path id="Vector_2" d="M8 10V10.01" stroke="var(--stroke-0, #5A8994)" stroke-width="2" stroke-linecap="round" stroke-linejoin="round"/>
<path id="Vector_3" d="M12 10V10.01" stroke="var(--stroke-0, #5A8994)" stroke-width="2" stroke-linecap="round" stroke-linejoin="round"/>
<path id="Vector_4" d="M16 10V10.01" stroke="var(--stroke-0, #5A8994)" stroke-width="2" stroke-linecap="round" stroke-linejoin="round"/>
<path id="Vector_5" d="M10 14L14 14.01" stroke="var(--stroke-0, #5A8994)" stroke-width="2" stroke-linecap="round" stroke-linejoin="round"/>
</g>
</svg>
